name C:\Users\Nicos\Desktop\Gil_twoSteps\Study2\ExperimentalData\IK_Splined\twoSteps_IK_BSplines_180_meshInts_study2_p02_s_01_lowIK_modROI.mot
datacolumns 38
datarows 8
range 0.54600000 0.55084444
endheader
                time	         pelvis_tilt	         pelvis_list	     pelvis_rotation	           pelvis_tx	           pelvis_ty	           pelvis_tz	       hip_flexion_r	     hip_adduction_r	      hip_rotation_r	        knee_angle_r	       ankle_angle_r	    subtalar_angle_r	         mtp_angle_r	       hip_flexion_l	     hip_adduction_l	      hip_rotation_l	        knee_angle_l	       ankle_angle_l	    subtalar_angle_l	         mtp_angle_l	    lumbar_extension	      lumbar_bending	     lumbar_rotation	          arm_flex_r	           arm_add_r	           arm_rot_r	        elbow_flex_r	           pro_sup_r	        wrist_flex_r	         wrist_dev_r	          arm_flex_l	           arm_add_l	           arm_rot_l	        elbow_flex_l	           pro_sup_l	        wrist_flex_l	         wrist_dev_l	
          0.54600000	        -23.03802404	         12.59761825	         -7.18958970	         -0.28945052	          0.87242716	          0.35077717	        -11.57244345	        -16.63145358	          0.60178547	        -25.39408252	        -42.88085837	        -15.79803321	         -5.88841898	         88.27058409	          0.78473957	        -11.20116190	        -86.12789024	          6.55890886	        -14.41752400	          7.20056053	        -14.97410316	        -23.77724522	         -7.01795255	         55.90281984	        -12.95037067	         24.71075783	        141.32387004	         60.41750742	        -18.61248434	         10.24842721	        -76.17922218	          4.63153122	        -44.93910837	         52.74918049	         63.39886017	          1.35631377	         25.46745632	
          0.54637557	        -23.02878241	         12.53032388	         -7.11319225	         -0.28735512	          0.87268393	          0.35082315	        -11.53962999	        -16.51194060	          0.50666448	        -25.62978423	        -42.86544156	        -15.86146334	         -5.94201493	         88.15807125	          0.80132193	        -11.16850957	        -85.96335786	          6.56236099	        -14.40350255	          7.19682881	        -15.03394065	        -23.74116460	         -7.07017190	         55.58574333	        -13.05892529	         24.67305568	        141.42483885	         60.38963527	        -18.63134760	         10.25547855	        -76.03739065	          4.62364895	        -44.95006320	         52.78219162	         63.39312080	          1.36329522	         25.46211274	
          0.54756221	        -22.99480530	         12.31687397	         -6.87245463	         -0.28073370	          0.87349838	          0.35097173	        -11.43194681	        -16.13367258	          0.20864939	        -26.38754251	        -42.80010817	        -16.04785228	         -6.08557148	         87.79265806	          0.85438705	        -11.06521259	        -85.44625505	          6.57109571	        -14.35639566	          7.18700700	        -15.23155222	        -23.62615423	         -7.22997200	         54.56942308	        -13.40292175	         24.53781652	        141.73485265	         60.30202480	        -18.69141582	         10.27881308	        -75.58279821	          4.58836259	        -44.97895066	         52.89352424	         63.38062829	          1.38463645	         25.44459082	
          0.54842222	        -22.96008111	         12.16042860	         -6.69934931	         -0.27593316	          0.87409530	          0.35108641	        -11.34543506	        -15.85813832	         -0.00199032	        -26.96428496	        -42.71761735	        -16.15328855	         -6.13510320	         87.50685851	          0.89426557	        -10.99007600	        -85.07730598	          6.57283323	        -14.31632570	          7.18405102	        -15.39284424	        -23.54066514	         -7.33481073	         53.80222207	        -13.65436272	         24.40573323	        141.94049356	         60.23948968	        -18.73593934	         10.29795535	        -75.23967221	          4.54084187	        -44.98778309	         52.98907563	         63.38350092	          1.39858701	         25.43054227	
          0.54842222	        -22.96008111	         12.16042860	         -6.69934931	         -0.27593316	          0.87409530	          0.35108641	        -11.34543506	        -15.85813832	         -0.00199032	        -26.96428496	        -42.71761735	        -16.15328855	         -6.13510320	         87.50685851	          0.89426557	        -10.99007600	        -85.07730598	          6.57283323	        -14.31632570	          7.18405102	        -15.39284424	        -23.54066514	         -7.33481073	         53.80222207	        -13.65436272	         24.40573323	        141.94049356	         60.23948968	        -18.73593934	         10.29795535	        -75.23967221	          4.54084187	        -44.98778309	         52.98907563	         63.38350092	          1.39858701	         25.43054227	
          0.54879779	        -22.94491704	         12.09210881	         -6.62375409	         -0.27383676	          0.87435597	          0.35113649	        -11.30765533	        -15.73781233	         -0.09397683	        -27.21614878	        -42.68159356	        -16.19933265	         -6.15673374	         87.38204965	          0.91168055	        -10.95726381	        -84.91618567	          6.57359201	        -14.29882712	          7.18276013	        -15.46328058	        -23.50333199	         -7.38059387	         53.46718487	        -13.76416716	         24.34805237	        142.03029708	         60.21218056	        -18.75538280	         10.30631480	        -75.08982885	          4.52008954	        -44.99164021	         53.03080299	         63.38475540	          1.40467923	         25.42440726	
          0.54998443	        -22.89393534	         11.87626484	         -6.38555464	         -0.26721198	          0.87518189	          0.35129661	        -11.18578621	        -15.35818906	         -0.38300508	        -28.01931884	        -42.56036246	        -16.33573095	         -6.21218567	         86.98129385	          0.96701989	        -10.85380406	        -84.40903798	          6.57454565	        -14.24231670	          7.17985362	        -15.69131290	        -23.38501957	         -7.52101887	         52.39850521	        -14.11089489	         24.15314949	        142.30781316	         60.12587576	        -18.81783435	         10.33377549	        -74.61193416	          4.44695765	        -44.99933826	         53.16742319	         63.39229539	          1.42372062	         25.40459097	
          0.55084444	        -22.84643748	         11.71989731	         -6.21515670	         -0.26240724	          0.87578834	          0.35141916	        -11.08886811	        -15.08497600	         -0.58693812	        -28.62678724	        -42.44703167	        -16.40337059	         -6.20806711	         86.66881533	          1.00820981	        -10.77955560	        -84.04810710	          6.57027475	        -14.19716108	          7.18177563	        -15.87541983	        -23.29805345	         -7.60824969	         51.58927678	        -14.36146405	         23.96840155	        142.48754228	         60.06326115	        -18.86659509	         10.35728020	        -74.25028553	          4.36796271	        -44.98948970	         53.28286197	         63.41005140	          1.43680748	         25.38874399	
